<svg xmlns="http://www.w3.org/2000/svg" xmlns:xlink="http://www.w3.org/1999/xlink" width="500" zoomAndPan="magnify" viewBox="0 0 375 374.999991" height="500" preserveAspectRatio="xMidYMid meet" version="1.0"><defs><clipPath id="a221317658"><path d="M 75.054688 0 L 270 0 L 270 363 L 75.054688 363 Z M 75.054688 0 " clip-rule="nonzero"/></clipPath><clipPath id="a88c21d3ca"><path d="M 109 12 L 303.054688 12 L 303.054688 375 L 109 375 Z M 109 12 " clip-rule="nonzero"/></clipPath></defs><g clip-path="url(#a221317658)"><path fill="#e89ab4" d="M 250.859375 277.347656 C 245.5 282.761719 235.292969 286.550781 224.914062 286.550781 C 210.386719 286.550781 199.488281 274.113281 199.488281 256.28125 L 199.488281 149.78125 L 257.433594 149.78125 L 257.433594 76.816406 L 199.488281 76.816406 L 199.488281 0.0625 L 111.964844 0.0625 L 111.964844 76.816406 L 75.296875 76.816406 L 75.296875 149.78125 L 111.964844 149.78125 L 111.964844 273.023438 C 111.964844 325.46875 148.808594 362.761719 201.21875 362.761719 C 224.914062 362.761719 252.589844 351.949219 269.367188 336.277344 Z M 250.859375 277.347656 " fill-opacity="1" fill-rule="nonzero"/></g><g clip-path="url(#a88c21d3ca)"><path fill="#e89ab4" d="M 284.589844 289.734375 C 279.226562 295.148438 269.019531 298.933594 258.640625 298.933594 C 244.113281 298.933594 233.214844 286.5 233.214844 268.664062 L 233.214844 162.167969 L 291.160156 162.167969 L 291.160156 89.203125 L 233.214844 89.203125 L 233.214844 12.445312 L 145.691406 12.445312 L 145.691406 89.203125 L 109.023438 89.203125 L 109.023438 162.167969 L 145.691406 162.167969 L 145.691406 285.410156 C 145.691406 337.851562 182.535156 375.144531 234.945312 375.144531 C 258.640625 375.144531 286.316406 364.335938 303.097656 348.664062 Z M 284.589844 289.734375 " fill-opacity="1" fill-rule="nonzero"/></g><path fill="#f8c6d3" d="M 267.292969 289.734375 C 261.929688 295.148438 251.722656 298.933594 241.347656 298.933594 C 226.816406 298.933594 215.917969 286.5 215.917969 268.664062 L 215.917969 162.167969 L 273.863281 162.167969 L 273.863281 89.203125 L 215.917969 89.203125 L 215.917969 12.445312 L 128.394531 12.445312 L 128.394531 89.203125 L 91.726562 89.203125 L 91.726562 162.167969 L 128.394531 162.167969 L 128.394531 285.410156 C 128.394531 337.851562 165.238281 375.144531 217.648438 375.144531 C 241.347656 375.144531 269.019531 364.335938 285.800781 348.664062 Z M 267.292969 289.734375 " fill-opacity="1" fill-rule="nonzero"/></svg>