<svg xmlns="http://www.w3.org/2000/svg" xmlns:xlink="http://www.w3.org/1999/xlink" width="500" zoomAndPan="magnify" viewBox="0 0 375 374.999991" height="500" preserveAspectRatio="xMidYMid meet" version="1.0"><path fill="#f8c6d3" d="M 283.984375 375 L 92.007812 375 C 41.28125 375 0.496094 334.21875 0.496094 283.488281 L 0.496094 91.511719 C 0.496094 40.78125 41.28125 0 92.007812 0 L 282.992188 0 C 333.71875 0 374.503906 40.78125 374.503906 91.511719 L 374.503906 282.492188 C 374.503906 333.222656 333.71875 374.003906 282.992188 374.003906 Z M 92.007812 29.839844 C 58.191406 29.839844 30.339844 57.691406 30.339844 91.511719 L 30.339844 282.492188 C 30.339844 316.3125 58.191406 344.164062 92.007812 344.164062 L 282.992188 344.164062 C 316.808594 344.164062 344.660156 316.3125 344.660156 282.492188 L 344.660156 91.511719 C 344.660156 57.691406 316.808594 29.839844 282.992188 29.839844 Z M 92.007812 29.839844 " fill-opacity="1" fill-rule="nonzero"/><path fill="#f8c6d3" d="M 188.496094 308.355469 C 122.84375 308.355469 70.125 255.636719 70.125 189.988281 C 70.125 124.335938 122.84375 71.617188 188.496094 71.617188 C 254.144531 71.617188 306.863281 124.335938 306.863281 189.988281 C 306.863281 255.636719 254.144531 308.355469 188.496094 308.355469 Z M 188.496094 100.464844 C 138.761719 100.464844 98.972656 140.253906 98.972656 189.988281 C 98.972656 239.722656 138.761719 279.507812 188.496094 279.507812 C 238.230469 279.507812 278.015625 239.722656 278.015625 189.988281 C 278.015625 140.253906 238.230469 100.464844 188.496094 100.464844 Z M 188.496094 100.464844 " fill-opacity="1" fill-rule="nonzero"/><path fill="#f8c6d3" d="M 188.496094 243.699219 C 158.652344 243.699219 134.78125 219.828125 134.78125 189.988281 C 134.78125 160.144531 158.652344 136.273438 188.496094 136.273438 C 218.335938 136.273438 242.207031 160.144531 242.207031 189.988281 C 242.207031 219.828125 218.335938 243.699219 188.496094 243.699219 Z M 188.496094 166.113281 C 175.5625 166.113281 164.621094 177.054688 164.621094 189.988281 C 164.621094 202.917969 175.5625 213.859375 188.496094 213.859375 C 201.425781 213.859375 212.367188 202.917969 212.367188 189.988281 C 212.367188 177.054688 201.425781 166.113281 188.496094 166.113281 Z M 188.496094 166.113281 " fill-opacity="1" fill-rule="nonzero"/><path fill="#f8c6d3" d="M 316.808594 78.582031 C 316.808594 79.234375 316.777344 79.882812 316.714844 80.53125 C 316.652344 81.179688 316.554688 81.824219 316.429688 82.460938 C 316.300781 83.101562 316.144531 83.730469 315.953125 84.355469 C 315.765625 84.980469 315.546875 85.59375 315.296875 86.195312 C 315.046875 86.796875 314.769531 87.382812 314.460938 87.957031 C 314.152344 88.535156 313.820312 89.089844 313.457031 89.632812 C 313.09375 90.175781 312.707031 90.699219 312.292969 91.203125 C 311.882812 91.707031 311.445312 92.1875 310.984375 92.648438 C 310.523438 93.109375 310.039062 93.546875 309.535156 93.960938 C 309.035156 94.371094 308.511719 94.761719 307.96875 95.121094 C 307.425781 95.484375 306.867188 95.820312 306.292969 96.125 C 305.71875 96.433594 305.132812 96.710938 304.53125 96.960938 C 303.925781 97.210938 303.316406 97.429688 302.691406 97.617188 C 302.066406 97.808594 301.4375 97.964844 300.796875 98.09375 C 300.160156 98.21875 299.515625 98.316406 298.867188 98.378906 C 298.21875 98.441406 297.566406 98.476562 296.917969 98.476562 C 296.265625 98.476562 295.613281 98.441406 294.964844 98.378906 C 294.316406 98.316406 293.675781 98.21875 293.035156 98.09375 C 292.394531 97.964844 291.765625 97.808594 291.140625 97.617188 C 290.519531 97.429688 289.90625 97.210938 289.304688 96.960938 C 288.703125 96.710938 288.113281 96.433594 287.539062 96.125 C 286.964844 95.820312 286.40625 95.484375 285.863281 95.121094 C 285.320312 94.761719 284.800781 94.371094 284.296875 93.960938 C 283.792969 93.546875 283.308594 93.109375 282.847656 92.648438 C 282.386719 92.1875 281.953125 91.707031 281.539062 91.203125 C 281.125 90.699219 280.738281 90.175781 280.375 89.632812 C 280.011719 89.089844 279.679688 88.535156 279.371094 87.957031 C 279.0625 87.382812 278.785156 86.796875 278.535156 86.195312 C 278.289062 85.59375 278.066406 84.980469 277.878906 84.355469 C 277.691406 83.730469 277.53125 83.101562 277.40625 82.460938 C 277.277344 81.824219 277.183594 81.179688 277.117188 80.53125 C 277.054688 79.882812 277.023438 79.234375 277.023438 78.582031 C 277.023438 77.929688 277.054688 77.28125 277.117188 76.632812 C 277.183594 75.984375 277.277344 75.339844 277.40625 74.699219 C 277.53125 74.0625 277.691406 73.429688 277.878906 72.804688 C 278.066406 72.183594 278.289062 71.570312 278.535156 70.96875 C 278.785156 70.367188 279.0625 69.777344 279.371094 69.203125 C 279.679688 68.628906 280.011719 68.070312 280.375 67.527344 C 280.738281 66.988281 281.125 66.464844 281.539062 65.960938 C 281.953125 65.457031 282.386719 64.972656 282.847656 64.515625 C 283.308594 64.054688 283.792969 63.617188 284.296875 63.203125 C 284.800781 62.789062 285.320312 62.402344 285.863281 62.039062 C 286.40625 61.679688 286.964844 61.34375 287.539062 61.035156 C 288.113281 60.730469 288.703125 60.449219 289.304688 60.203125 C 289.90625 59.953125 290.519531 59.734375 291.140625 59.542969 C 291.765625 59.355469 292.394531 59.195312 293.035156 59.070312 C 293.675781 58.941406 294.316406 58.847656 294.964844 58.78125 C 295.613281 58.71875 296.265625 58.6875 296.917969 58.6875 C 297.566406 58.6875 298.21875 58.71875 298.867188 58.78125 C 299.515625 58.847656 300.160156 58.941406 300.796875 59.070312 C 301.4375 59.195312 302.066406 59.355469 302.691406 59.542969 C 303.316406 59.734375 303.925781 59.953125 304.53125 60.203125 C 305.132812 60.449219 305.71875 60.730469 306.292969 61.035156 C 306.867188 61.34375 307.425781 61.679688 307.96875 62.039062 C 308.511719 62.402344 309.035156 62.789062 309.535156 63.203125 C 310.039062 63.617188 310.523438 64.054688 310.984375 64.515625 C 311.445312 64.972656 311.882812 65.457031 312.292969 65.960938 C 312.707031 66.464844 313.09375 66.988281 313.457031 67.527344 C 313.820312 68.070312 314.152344 68.628906 314.460938 69.203125 C 314.769531 69.777344 315.046875 70.367188 315.296875 70.96875 C 315.546875 71.570312 315.765625 72.183594 315.953125 72.804688 C 316.144531 73.429688 316.300781 74.0625 316.429688 74.699219 C 316.554688 75.339844 316.652344 75.984375 316.714844 76.632812 C 316.777344 77.28125 316.808594 77.929688 316.808594 78.582031 Z M 316.808594 78.582031 " fill-opacity="1" fill-rule="nonzero"/></svg>