<svg xmlns="http://www.w3.org/2000/svg" xmlns:xlink="http://www.w3.org/1999/xlink" width="500" zoomAndPan="magnify" viewBox="0 0 375 374.999991" height="500" preserveAspectRatio="xMidYMid meet" version="1.0"><defs><clipPath id="9f14bbd903"><path d="M 4.6875 0 L 370.6875 0 L 370.6875 370 L 4.6875 370 Z M 4.6875 0 " clip-rule="nonzero"/></clipPath></defs><g clip-path="url(#9f14bbd903)"><path fill="#f8c6d3" d="M 370.300781 182.835938 C 370.300781 283.78125 288.46875 365.613281 187.523438 365.613281 C 180.164062 365.625 172.828125 365.191406 165.519531 364.3125 C 158.210938 363.433594 150.980469 362.113281 143.832031 360.359375 C 136.683594 358.601562 129.664062 356.417969 122.78125 353.8125 C 115.898438 351.203125 109.195312 348.1875 102.679688 344.765625 C 102.605469 344.796875 102.535156 344.828125 102.460938 344.859375 L 47.367188 367.753906 C 30.125 374.917969 12.738281 357.859375 19.570312 340.488281 L 39.433594 289.988281 C 33.816406 282.25 28.84375 274.117188 24.507812 265.59375 C 20.175781 257.070312 16.535156 248.261719 13.589844 239.164062 C 10.644531 230.066406 8.433594 220.792969 6.949219 211.347656 C 5.464844 201.902344 4.730469 192.398438 4.746094 182.835938 C 4.746094 81.890625 86.578125 0.0585938 187.523438 0.0585938 C 288.46875 0.0585938 370.300781 81.890625 370.300781 182.835938 Z M 370.300781 182.835938 " fill-opacity="1" fill-rule="nonzero"/></g><path fill="#ffffff" d="M 346.585938 182.835938 C 346.585938 185.441406 346.519531 188.042969 346.394531 190.640625 C 346.265625 193.242188 346.074219 195.835938 345.820312 198.425781 C 345.5625 201.019531 345.246094 203.601562 344.863281 206.175781 C 344.480469 208.75 344.035156 211.316406 343.527344 213.867188 C 343.019531 216.421875 342.449219 218.960938 341.816406 221.484375 C 341.1875 224.011719 340.492188 226.519531 339.734375 229.007812 C 338.980469 231.5 338.164062 233.972656 337.285156 236.421875 C 336.410156 238.875 335.472656 241.300781 334.476562 243.707031 C 333.480469 246.113281 332.425781 248.492188 331.3125 250.84375 C 330.199219 253.195312 329.03125 255.523438 327.804688 257.816406 C 326.574219 260.113281 325.292969 262.378906 323.957031 264.609375 C 322.617188 266.84375 321.222656 269.042969 319.777344 271.207031 C 318.332031 273.371094 316.832031 275.5 315.28125 277.589844 C 313.730469 279.679688 312.132812 281.730469 310.480469 283.742188 C 308.828125 285.757812 307.128906 287.726562 305.378906 289.65625 C 303.632812 291.585938 301.835938 293.46875 299.996094 295.308594 C 298.15625 297.148438 296.273438 298.945312 294.34375 300.691406 C 292.414062 302.441406 290.445312 304.140625 288.429688 305.792969 C 286.417969 307.445312 284.367188 309.042969 282.277344 310.59375 C 280.1875 312.144531 278.058594 313.644531 275.894531 315.089844 C 273.730469 316.535156 271.53125 317.929688 269.296875 319.269531 C 267.066406 320.605469 264.800781 321.886719 262.503906 323.117188 C 260.210938 324.34375 257.882812 325.511719 255.53125 326.625 C 253.179688 327.738281 250.800781 328.792969 248.394531 329.789062 C 245.988281 330.785156 243.5625 331.722656 241.109375 332.597656 C 238.660156 333.476562 236.1875 334.292969 233.695312 335.046875 C 231.207031 335.804688 228.699219 336.5 226.171875 337.128906 C 223.648438 337.761719 221.109375 338.332031 218.554688 338.839844 C 216.003906 339.347656 213.4375 339.792969 210.863281 340.175781 C 208.289062 340.558594 205.707031 340.875 203.113281 341.132812 C 200.523438 341.386719 197.929688 341.578125 195.328125 341.707031 C 192.730469 341.832031 190.128906 341.898438 187.523438 341.898438 C 184.921875 341.898438 182.320312 341.832031 179.71875 341.707031 C 177.121094 341.578125 174.523438 341.386719 171.933594 341.132812 C 169.34375 340.875 166.761719 340.558594 164.183594 340.175781 C 161.609375 339.792969 159.046875 339.347656 156.492188 338.839844 C 153.941406 338.332031 151.398438 337.761719 148.875 337.128906 C 146.351562 336.5 143.84375 335.804688 141.351562 335.046875 C 138.859375 334.292969 136.390625 333.476562 133.9375 332.597656 C 131.488281 331.722656 129.058594 330.785156 126.652344 329.789062 C 124.25 328.792969 121.871094 327.738281 119.515625 326.625 C 117.164062 325.511719 114.839844 324.34375 112.542969 323.117188 C 110.246094 321.886719 107.984375 320.605469 105.75 319.269531 C 103.515625 317.929688 101.320312 316.535156 99.15625 315.089844 C 96.988281 313.644531 94.863281 312.144531 92.769531 310.59375 C 90.679688 309.042969 88.628906 307.445312 86.617188 305.792969 C 84.605469 304.140625 82.632812 302.441406 80.703125 300.691406 C 78.777344 298.945312 76.890625 297.148438 75.050781 295.308594 C 73.210938 293.46875 71.414062 291.585938 69.667969 289.65625 C 67.917969 287.726562 66.21875 285.757812 64.566406 283.742188 C 62.917969 281.730469 61.316406 279.679688 59.765625 277.589844 C 58.214844 275.5 56.714844 273.371094 55.269531 271.207031 C 53.824219 269.042969 52.429688 266.84375 51.09375 264.609375 C 49.753906 262.378906 48.472656 260.113281 47.246094 257.816406 C 46.015625 255.523438 44.847656 253.195312 43.734375 250.84375 C 42.621094 248.492188 41.566406 246.113281 40.570312 243.707031 C 39.574219 241.300781 38.636719 238.875 37.761719 236.421875 C 36.882812 233.972656 36.066406 231.5 35.3125 229.007812 C 34.554688 226.519531 33.863281 224.011719 33.230469 221.484375 C 32.597656 218.960938 32.027344 216.421875 31.519531 213.867188 C 31.011719 211.316406 30.566406 208.75 30.183594 206.175781 C 29.800781 203.601562 29.484375 201.019531 29.230469 198.425781 C 28.972656 195.835938 28.78125 193.242188 28.65625 190.640625 C 28.527344 188.042969 28.460938 185.441406 28.460938 182.835938 C 28.460938 180.234375 28.527344 177.632812 28.65625 175.03125 C 28.78125 172.429688 28.972656 169.835938 29.230469 167.246094 C 29.484375 164.65625 29.800781 162.074219 30.183594 159.496094 C 30.566406 156.921875 31.011719 154.359375 31.519531 151.804688 C 32.027344 149.253906 32.597656 146.710938 33.230469 144.1875 C 33.863281 141.664062 34.554688 139.15625 35.3125 136.664062 C 36.066406 134.171875 36.882812 131.703125 37.761719 129.25 C 38.636719 126.800781 39.574219 124.371094 40.570312 121.964844 C 41.566406 119.5625 42.621094 117.183594 43.734375 114.828125 C 44.847656 112.476562 46.015625 110.152344 47.246094 107.855469 C 48.472656 105.558594 49.753906 103.296875 51.09375 101.0625 C 52.429688 98.828125 53.824219 96.632812 55.269531 94.464844 C 56.714844 92.300781 58.214844 90.175781 59.765625 88.082031 C 61.316406 85.992188 62.917969 83.941406 64.566406 81.929688 C 66.21875 79.917969 67.917969 77.945312 69.667969 76.015625 C 71.414062 74.089844 73.210938 72.203125 75.050781 70.363281 C 76.890625 68.523438 78.777344 66.726562 80.703125 64.980469 C 82.632812 63.230469 84.605469 61.53125 86.617188 59.878906 C 88.628906 58.230469 90.679688 56.628906 92.769531 55.078125 C 94.863281 53.527344 96.988281 52.027344 99.152344 50.582031 C 101.320312 49.136719 103.515625 47.742188 105.75 46.40625 C 107.984375 45.066406 110.246094 43.785156 112.542969 42.558594 C 114.839844 41.328125 117.164062 40.160156 119.515625 39.046875 C 121.871094 37.933594 124.25 36.878906 126.652344 35.882812 C 129.058594 34.886719 131.488281 33.949219 133.9375 33.074219 C 136.390625 32.195312 138.859375 31.378906 141.351562 30.625 C 143.84375 29.867188 146.351562 29.175781 148.875 28.542969 C 151.398438 27.910156 153.941406 27.339844 156.492188 26.832031 C 159.046875 26.324219 161.609375 25.878906 164.183594 25.496094 C 166.761719 25.113281 169.34375 24.796875 171.933594 24.542969 C 174.523438 24.285156 177.121094 24.09375 179.71875 23.96875 C 182.320312 23.839844 184.921875 23.773438 187.523438 23.773438 C 190.128906 23.773438 192.730469 23.839844 195.328125 23.96875 C 197.929688 24.09375 200.523438 24.285156 203.113281 24.542969 C 205.707031 24.796875 208.289062 25.113281 210.863281 25.496094 C 213.4375 25.878906 216.003906 26.324219 218.554688 26.832031 C 221.109375 27.339844 223.648438 27.910156 226.171875 28.542969 C 228.699219 29.175781 231.207031 29.867188 233.695312 30.625 C 236.1875 31.378906 238.660156 32.195312 241.109375 33.074219 C 243.5625 33.949219 245.988281 34.886719 248.394531 35.882812 C 250.800781 36.878906 253.179688 37.933594 255.53125 39.046875 C 257.882812 40.160156 260.210938 41.328125 262.503906 42.558594 C 264.800781 43.785156 267.066406 45.066406 269.296875 46.40625 C 271.53125 47.742188 273.730469 49.136719 275.894531 50.582031 C 278.058594 52.027344 280.1875 53.527344 282.277344 55.078125 C 284.367188 56.628906 286.417969 58.230469 288.429688 59.878906 C 290.445312 61.53125 292.414062 63.230469 294.34375 64.980469 C 296.273438 66.726562 298.15625 68.523438 299.996094 70.363281 C 301.835938 72.203125 303.632812 74.089844 305.378906 76.015625 C 307.128906 77.945312 308.828125 79.917969 310.480469 81.929688 C 312.132812 83.941406 313.730469 85.992188 315.28125 88.082031 C 316.832031 90.175781 318.332031 92.300781 319.777344 94.464844 C 321.222656 96.632812 322.617188 98.828125 323.957031 101.0625 C 325.292969 103.296875 326.574219 105.558594 327.804688 107.855469 C 329.03125 110.152344 330.199219 112.476562 331.3125 114.828125 C 332.425781 117.183594 333.480469 119.5625 334.476562 121.964844 C 335.472656 124.371094 336.410156 126.800781 337.285156 129.25 C 338.164062 131.703125 338.980469 134.171875 339.734375 136.664062 C 340.492188 139.15625 341.1875 141.664062 341.816406 144.1875 C 342.449219 146.710938 343.019531 149.253906 343.527344 151.804688 C 344.035156 154.359375 344.480469 156.921875 344.863281 159.496094 C 345.246094 162.074219 345.5625 164.65625 345.820312 167.246094 C 346.074219 169.835938 346.265625 172.429688 346.394531 175.03125 C 346.519531 177.632812 346.585938 180.234375 346.585938 182.835938 Z M 346.585938 182.835938 " fill-opacity="1" fill-rule="nonzero"/><path fill="#f8c6d3" d="M 324.308594 182.835938 C 324.308594 185.074219 324.253906 187.3125 324.140625 189.546875 C 324.03125 191.785156 323.867188 194.015625 323.648438 196.242188 C 323.429688 198.472656 323.15625 200.691406 322.828125 202.90625 C 322.496094 205.121094 322.117188 207.324219 321.679688 209.519531 C 321.242188 211.71875 320.75 213.902344 320.207031 216.070312 C 319.664062 218.242188 319.066406 220.398438 318.417969 222.542969 C 317.765625 224.683594 317.066406 226.808594 316.3125 228.917969 C 315.558594 231.023438 314.75 233.113281 313.894531 235.179688 C 313.039062 237.25 312.132812 239.296875 311.175781 241.320312 C 310.21875 243.34375 309.210938 245.339844 308.15625 247.316406 C 307.101562 249.289062 305.996094 251.238281 304.847656 253.15625 C 303.695312 255.078125 302.5 256.96875 301.253906 258.828125 C 300.011719 260.691406 298.722656 262.519531 297.390625 264.316406 C 296.054688 266.117188 294.679688 267.878906 293.257812 269.609375 C 291.839844 271.339844 290.375 273.035156 288.875 274.695312 C 287.371094 276.351562 285.828125 277.972656 284.242188 279.554688 C 282.660156 281.140625 281.039062 282.683594 279.382812 284.1875 C 277.722656 285.6875 276.027344 287.152344 274.296875 288.570312 C 272.566406 289.992188 270.804688 291.367188 269.003906 292.703125 C 267.207031 294.035156 265.378906 295.324219 263.515625 296.566406 C 261.65625 297.8125 259.765625 299.007812 257.84375 300.160156 C 255.925781 301.308594 253.976562 302.414062 252.003906 303.46875 C 250.027344 304.523438 248.03125 305.53125 246.007812 306.488281 C 243.984375 307.445312 241.9375 308.351562 239.867188 309.207031 C 237.800781 310.0625 235.710938 310.871094 233.605469 311.625 C 231.496094 312.378906 229.371094 313.078125 227.230469 313.730469 C 225.085938 314.378906 222.929688 314.976562 220.757812 315.519531 C 218.589844 316.0625 216.40625 316.554688 214.207031 316.992188 C 212.011719 317.429688 209.808594 317.808594 207.59375 318.140625 C 205.378906 318.46875 203.160156 318.742188 200.929688 318.960938 C 198.703125 319.179688 196.472656 319.34375 194.234375 319.453125 C 192 319.5625 189.761719 319.621094 187.523438 319.621094 C 185.285156 319.621094 183.046875 319.5625 180.8125 319.453125 C 178.578125 319.34375 176.34375 319.179688 174.117188 318.960938 C 171.890625 318.742188 169.667969 318.46875 167.453125 318.140625 C 165.238281 317.808594 163.035156 317.429688 160.839844 316.992188 C 158.644531 316.554688 156.460938 316.0625 154.289062 315.519531 C 152.117188 314.976562 149.960938 314.378906 147.816406 313.730469 C 145.675781 313.078125 143.550781 312.378906 141.441406 311.625 C 139.335938 310.871094 137.246094 310.0625 135.179688 309.207031 C 133.109375 308.351562 131.066406 307.445312 129.042969 306.488281 C 127.019531 305.53125 125.019531 304.523438 123.042969 303.46875 C 121.070312 302.414062 119.125 301.308594 117.203125 300.160156 C 115.285156 299.007812 113.394531 297.8125 111.53125 296.566406 C 109.671875 295.324219 107.839844 294.035156 106.042969 292.703125 C 104.246094 291.367188 102.480469 289.992188 100.75 288.570312 C 99.019531 287.152344 97.324219 285.6875 95.667969 284.1875 C 94.007812 282.683594 92.386719 281.140625 90.804688 279.554688 C 89.222656 277.972656 87.679688 276.351562 86.175781 274.695312 C 84.671875 273.035156 83.210938 271.339844 81.789062 269.609375 C 80.367188 267.878906 78.992188 266.117188 77.660156 264.316406 C 76.324219 262.519531 75.035156 260.691406 73.792969 258.828125 C 72.550781 256.96875 71.351562 255.078125 70.203125 253.15625 C 69.050781 251.238281 67.949219 249.289062 66.890625 247.316406 C 65.835938 245.339844 64.832031 243.34375 63.875 241.320312 C 62.917969 239.296875 62.007812 237.25 61.152344 235.179688 C 60.296875 233.113281 59.492188 231.023438 58.738281 228.917969 C 57.984375 226.808594 57.28125 224.683594 56.628906 222.542969 C 55.980469 220.398438 55.382812 218.242188 54.839844 216.070312 C 54.296875 213.902344 53.804688 211.71875 53.371094 209.519531 C 52.933594 207.324219 52.550781 205.121094 52.222656 202.90625 C 51.894531 200.691406 51.617188 198.472656 51.398438 196.242188 C 51.179688 194.015625 51.015625 191.785156 50.90625 189.546875 C 50.796875 187.3125 50.742188 185.074219 50.742188 182.835938 C 50.742188 180.597656 50.796875 178.359375 50.90625 176.125 C 51.015625 173.890625 51.179688 171.65625 51.398438 169.429688 C 51.617188 167.203125 51.894531 164.980469 52.222656 162.765625 C 52.550781 160.550781 52.933594 158.347656 53.371094 156.152344 C 53.804688 153.957031 54.296875 151.773438 54.839844 149.601562 C 55.382812 147.429688 55.980469 145.273438 56.628906 143.128906 C 57.28125 140.988281 57.984375 138.863281 58.738281 136.753906 C 59.492188 134.648438 60.296875 132.558594 61.152344 130.492188 C 62.007812 128.421875 62.917969 126.378906 63.875 124.355469 C 64.832031 122.332031 65.835938 120.332031 66.890625 118.355469 C 67.949219 116.382812 69.050781 114.4375 70.203125 112.515625 C 71.351562 110.597656 72.550781 108.707031 73.792969 106.84375 C 75.035156 104.984375 76.324219 103.152344 77.660156 101.355469 C 78.992188 99.558594 80.367188 97.792969 81.789062 96.0625 C 83.210938 94.332031 84.671875 92.636719 86.175781 90.980469 C 87.679688 89.320312 89.222656 87.699219 90.804688 86.117188 C 92.386719 84.535156 94.007812 82.988281 95.667969 81.488281 C 97.324219 79.984375 99.019531 78.523438 100.75 77.101562 C 102.480469 75.679688 104.246094 74.304688 106.042969 72.972656 C 107.839844 71.636719 109.671875 70.347656 111.53125 69.105469 C 113.394531 67.863281 115.285156 66.664062 117.203125 65.515625 C 119.125 64.363281 121.070312 63.261719 123.042969 62.203125 C 125.019531 61.148438 127.019531 60.144531 129.042969 59.1875 C 131.066406 58.230469 133.109375 57.320312 135.179688 56.464844 C 137.246094 55.609375 139.335938 54.804688 141.441406 54.050781 C 143.550781 53.296875 145.675781 52.59375 147.816406 51.941406 C 149.960938 51.292969 152.117188 50.695312 154.289062 50.152344 C 156.460938 49.609375 158.644531 49.117188 160.839844 48.683594 C 163.035156 48.246094 165.238281 47.863281 167.453125 47.535156 C 169.667969 47.207031 171.890625 46.929688 174.117188 46.710938 C 176.34375 46.492188 178.578125 46.328125 180.8125 46.21875 C 183.046875 46.109375 185.285156 46.054688 187.523438 46.054688 C 189.761719 46.054688 192 46.109375 194.234375 46.21875 C 196.472656 46.328125 198.703125 46.492188 200.929688 46.710938 C 203.160156 46.929688 205.378906 47.207031 207.59375 47.535156 C 209.808594 47.863281 212.011719 48.246094 214.207031 48.683594 C 216.40625 49.117188 218.589844 49.609375 220.757812 50.152344 C 222.929688 50.695312 225.085938 51.292969 227.230469 51.941406 C 229.371094 52.59375 231.496094 53.296875 233.605469 54.050781 C 235.710938 54.804688 237.800781 55.609375 239.867188 56.464844 C 241.9375 57.320312 243.984375 58.230469 246.007812 59.1875 C 248.03125 60.144531 250.027344 61.148438 252.003906 62.203125 C 253.976562 63.261719 255.925781 64.363281 257.84375 65.515625 C 259.765625 66.664062 261.65625 67.863281 263.515625 69.105469 C 265.378906 70.347656 267.207031 71.636719 269.003906 72.972656 C 270.804688 74.304688 272.566406 75.679688 274.296875 77.101562 C 276.027344 78.523438 277.722656 79.984375 279.382812 81.488281 C 281.039062 82.988281 282.660156 84.535156 284.242188 86.117188 C 285.828125 87.699219 287.371094 89.320312 288.875 90.980469 C 290.375 92.636719 291.839844 94.332031 293.257812 96.0625 C 294.679688 97.792969 296.054688 99.558594 297.390625 101.355469 C 298.722656 103.152344 300.011719 104.984375 301.253906 106.84375 C 302.5 108.707031 303.695312 110.597656 304.847656 112.515625 C 305.996094 114.4375 307.101562 116.382812 308.15625 118.355469 C 309.210938 120.332031 310.21875 122.332031 311.175781 124.355469 C 312.132812 126.378906 313.039062 128.421875 313.894531 130.492188 C 314.75 132.558594 315.558594 134.648438 316.3125 136.753906 C 317.066406 138.863281 317.765625 140.988281 318.417969 143.128906 C 319.066406 145.273438 319.664062 147.429688 320.207031 149.601562 C 320.75 151.773438 321.242188 153.957031 321.679688 156.152344 C 322.117188 158.347656 322.496094 160.550781 322.828125 162.765625 C 323.15625 164.980469 323.429688 167.203125 323.648438 169.429688 C 323.867188 171.65625 324.03125 173.890625 324.140625 176.125 C 324.253906 178.359375 324.308594 180.597656 324.308594 182.835938 Z M 324.308594 182.835938 " fill-opacity="1" fill-rule="nonzero"/><path fill="#ffffff" d="M 169.960938 138.152344 L 164.636719 115.679688 C 164.484375 115.039062 164.300781 114.410156 164.082031 113.789062 C 163.863281 113.167969 163.613281 112.5625 163.332031 111.96875 C 163.050781 111.375 162.738281 110.796875 162.394531 110.234375 C 162.054688 109.671875 161.683594 109.132812 161.28125 108.609375 C 160.882812 108.085938 160.457031 107.589844 160.003906 107.109375 C 159.550781 106.632812 159.074219 106.179688 158.574219 105.753906 C 158.074219 105.328125 157.554688 104.929688 157.011719 104.554688 C 156.46875 104.183594 155.910156 103.839844 155.332031 103.527344 C 154.753906 103.214844 154.160156 102.933594 153.550781 102.683594 C 152.945312 102.429688 152.324219 102.214844 151.695312 102.027344 C 151.0625 101.84375 150.425781 101.691406 149.777344 101.574219 C 149.128906 101.453125 148.480469 101.371094 147.824219 101.320312 C 147.167969 101.273438 146.511719 101.257812 145.855469 101.277344 C 145.195312 101.296875 144.542969 101.351562 143.890625 101.4375 C 143.238281 101.527344 142.59375 101.648438 141.957031 101.808594 C 141.316406 101.964844 140.6875 102.152344 140.070312 102.375 L 127.792969 106.796875 C 126.800781 107.152344 125.84375 107.59375 124.925781 108.113281 C 124.007812 108.632812 123.140625 109.222656 122.320312 109.890625 C 121.503906 110.554688 120.746094 111.285156 120.050781 112.082031 C 119.355469 112.875 118.730469 113.722656 118.179688 114.621094 C 117.628906 115.519531 117.152344 116.460938 116.761719 117.4375 C 116.367188 118.417969 116.058594 119.421875 115.835938 120.453125 C 115.613281 121.484375 115.476562 122.527344 115.429688 123.582031 C 115.382812 124.636719 115.421875 125.6875 115.550781 126.734375 C 119.832031 161.496094 139.523438 245.585938 230.089844 264.0625 C 230.984375 264.242188 231.886719 264.359375 232.796875 264.410156 C 233.707031 264.460938 234.617188 264.445312 235.527344 264.363281 C 236.433594 264.28125 237.332031 264.132812 238.21875 263.921875 C 239.105469 263.707031 239.972656 263.429688 240.820312 263.089844 C 241.667969 262.75 242.484375 262.351562 243.273438 261.890625 C 244.0625 261.433594 244.8125 260.917969 245.523438 260.347656 C 246.238281 259.78125 246.90625 259.164062 247.527344 258.496094 C 248.152344 257.828125 248.722656 257.121094 249.242188 256.371094 L 256.289062 246.191406 C 256.636719 245.6875 256.960938 245.167969 257.257812 244.632812 C 257.558594 244.09375 257.828125 243.546875 258.074219 242.984375 C 258.316406 242.421875 258.53125 241.847656 258.71875 241.261719 C 258.90625 240.679688 259.066406 240.085938 259.195312 239.488281 C 259.324219 238.886719 259.425781 238.285156 259.496094 237.675781 C 259.566406 237.066406 259.605469 236.453125 259.617188 235.839844 C 259.625 235.226562 259.605469 234.613281 259.554688 234.003906 C 259.503906 233.390625 259.425781 232.785156 259.316406 232.179688 C 259.207031 231.578125 259.066406 230.980469 258.898438 230.390625 C 258.730469 229.800781 258.535156 229.222656 258.308594 228.652344 C 258.082031 228.082031 257.832031 227.523438 257.550781 226.976562 C 257.269531 226.429688 256.964844 225.902344 256.632812 225.386719 C 256.300781 224.871094 255.941406 224.371094 255.5625 223.890625 C 255.179688 223.410156 254.777344 222.949219 254.351562 222.507812 C 253.921875 222.070312 253.476562 221.648438 253.007812 221.253906 C 252.539062 220.855469 252.054688 220.484375 251.550781 220.132812 L 251.429688 220.050781 L 235.945312 209.507812 C 235.113281 208.941406 234.242188 208.445312 233.328125 208.019531 C 232.414062 207.59375 231.472656 207.242188 230.503906 206.96875 C 229.535156 206.695312 228.550781 206.5 227.550781 206.382812 C 226.550781 206.269531 225.546875 206.234375 224.539062 206.28125 C 223.53125 206.328125 222.535156 206.457031 221.550781 206.664062 C 220.566406 206.871094 219.601562 207.15625 218.664062 207.519531 C 217.722656 207.878906 216.816406 208.316406 215.949219 208.824219 C 215.078125 209.335938 214.257812 209.910156 213.480469 210.550781 C 212.707031 211.191406 211.890625 211.761719 211.027344 212.269531 C 210.164062 212.777344 209.265625 213.210938 208.332031 213.574219 C 207.398438 213.9375 206.445312 214.226562 205.464844 214.433594 C 204.484375 214.644531 203.496094 214.773438 202.496094 214.824219 C 201.496094 214.875 200.496094 214.84375 199.503906 214.734375 C 198.507812 214.625 197.527344 214.4375 196.5625 214.167969 C 195.597656 213.902344 194.660156 213.558594 193.75 213.140625 C 192.839844 212.722656 191.96875 212.234375 191.136719 211.675781 C 181.71875 205.332031 168.96875 194.808594 160.6875 180.21875 C 160.222656 179.40625 159.824219 178.5625 159.484375 177.6875 C 159.148438 176.816406 158.875 175.921875 158.671875 175.007812 C 158.46875 174.09375 158.332031 173.171875 158.265625 172.234375 C 158.199219 171.300781 158.203125 170.367188 158.277344 169.433594 C 158.351562 168.5 158.492188 167.578125 158.703125 166.667969 C 158.914062 165.753906 159.195312 164.863281 159.539062 163.992188 C 159.882812 163.121094 160.292969 162.28125 160.761719 161.472656 C 161.230469 160.664062 161.761719 159.890625 162.347656 159.160156 L 166.332031 154.210938 C 167.222656 153.097656 167.980469 151.898438 168.601562 150.617188 C 169.222656 149.332031 169.691406 147.992188 170.003906 146.601562 C 170.320312 145.210938 170.472656 143.800781 170.464844 142.375 C 170.457031 140.949219 170.289062 139.542969 169.960938 138.152344 Z M 169.960938 138.152344 " fill-opacity="1" fill-rule="nonzero"/></svg>